<?xml version="1.0" encoding="UTF-8" standalone="no"?>
<!-- Created with Inkscape (http://www.inkscape.org/) -->

<svg
   width="192.808mm"
   height="186.85617mm"
   viewBox="0 0 192.808 186.85617"
   version="1.1"
   id="svg5"
   xml:space="preserve"
   inkscape:version="1.2.1 (9c6d41e410, 2022-07-14)"
   sodipodi:docname="drawing.svg"
   xmlns:inkscape="http://www.inkscape.org/namespaces/inkscape"
   xmlns:sodipodi="http://sodipodi.sourceforge.net/DTD/sodipodi-0.dtd"
   xmlns="http://www.w3.org/2000/svg"
   xmlns:svg="http://www.w3.org/2000/svg"><sodipodi:namedview
     id="namedview7"
     pagecolor="#ffffff"
     bordercolor="#000000"
     borderopacity="0.25"
     inkscape:showpageshadow="2"
     inkscape:pageopacity="0.0"
     inkscape:pagecheckerboard="0"
     inkscape:deskcolor="#d1d1d1"
     inkscape:document-units="mm"
     showgrid="false"
     inkscape:zoom="0.914906"
     inkscape:cx="172.69534"
     inkscape:cy="560.71334"
     inkscape:window-width="2560"
     inkscape:window-height="1377"
     inkscape:window-x="-8"
     inkscape:window-y="-8"
     inkscape:window-maximized="1"
     inkscape:current-layer="layer1" /><defs
     id="defs2"><rect
       x="40.441315"
       y="788.05908"
       width="703.89746"
       height="312.60043"
       id="rect284" /><rect
       x="62.301483"
       y="777.12903"
       width="697.33942"
       height="295.11227"
       id="rect278" /></defs><g
     inkscape:label="Layer 1"
     inkscape:groupmode="layer"
     id="layer1"
     transform="translate(0.14428862,-0.31337549)"><path
       d="m 68.993426,57.219961 a 6.5299167,6.5299167 0 0 0 -1.0795,-1.44727 l -4.85246,-4.78631 a 5.7229375,5.7229375 0 0 0 -1.73566,-1.20914 5.5377292,5.5377292 0 0 0 -6.1595,1.12977 c -1.68275,1.65629 -4.7625,4.67783 -10.31875,10.16793 -10.62567,10.511904 -30.35565,28.130508 -39.2774002,35.644678 a 4.2333333,4.2333333 0 0 0 -0.2884,6.228291 l 10.3187502,10.43252 a 4.2677292,4.2677292 0 0 0 6.26269,-0.23548 c 7.73642,-9.09373 25.47938,-28.839585 35.98333,-39.219185 5.39486,-5.30755 8.41905,-8.355554 10.1309,-10.038304 a 5.7573333,5.7573333 0 0 0 1.016,-6.6675 z m 53.183884,-12.17083 -9.07785,-8.99583 a 1.4393333,1.4393333 0 0 0 -1.05833,-0.42069 1.4790208,1.4790208 0 0 0 -1.05834,0.42069 v 0 a 3.0188958,3.0188958 0 0 1 -2.52677,0.86519 c -1.18533,-0.12965 -2.44739,-0.49742 -3.26231,-1.28588 -1.85208,-1.81504 0.2884,-5.38692 -1.34144,-7.67292 A 64.262,64.262 0 0 0 97.745691,20.890029 C 95.877731,19.037945 88.53555,12.034425 76.168925,6.991466 A 32.752771,32.752771 0 0 0 63.733506,4.546716 c -6.97177,0 -12.33223,3.1115 -14.2875,4.897438 -1.55575,1.407583 -3.175,3.643312 -3.175,3.643312 a 24.153812,24.153812 0 0 1 2.86015,-0.846666 21.042312,21.042312 0 0 1 6.1595,-0.39423 c 4.11692,0.341313 9.07785,2.272771 11.73956,4.36298 4.288899,3.439583 6.133039,8.040691 6.421439,13.977941 0.21167,4.41589 -4.0296,9.99066 -8.053919,14.5362 a 2.0769792,2.0769792 0 0 0 0.10584,2.86544 l 5.619749,5.61711 a 2.1166667,2.1166667 0 0 0 2.94745,0.0265 c 3.68565,-3.57452 8.2259,-7.53269 10.800295,-9.11755 2.57439,-1.58485 4.65137,-2.032 5.64885,-2.14047 a 9.4482708,9.4482708 0 0 1 5.635621,1.22237 3.6115625,3.6115625 0 0 1 0.81492,0.62971 c 1.70921,1.73567 1.60602,4.572 -0.13229,6.28121 l -0.52917,0.50006 a 1.4552083,1.4552083 0 0 0 0,2.07433 l 9.077859,8.99584 a 1.4552083,1.4552083 0 0 0 1.05833,0.41804 1.4948958,1.4948958 0 0 0 1.05833,-0.41804 l 14.67379,-14.5124 a 1.539875,1.539875 0 0 0 0,-2.11667 z"
       fill="none"
       stroke="currentColor"
       stroke-linecap="round"
       stroke-linejoin="round"
       stroke-width="8.46667"
       id="path200" /><path
       d="m 174.76169,89.132699 c 0,-7.721575 -6.02419,-14.005265 -13.42689,-14.005265 H 98.676021 c -7.402689,0 -13.426882,6.28369 -13.426882,14.005265 v 9.33684 c 0,7.721571 6.024193,14.005261 13.426882,14.005261 H 161.3348 c 7.4027,0 13.42689,-6.28369 13.42689,-14.005261 4.93662,0 8.95126,4.187571 8.95126,9.336831 v 4.66843 c 0,5.14927 -4.01464,9.33685 -8.95126,9.33685 h -31.3294 c -9.87323,0 -17.9025,8.37514 -17.9025,18.67368 v 0.85899 c -5.19621,1.93273 -8.95126,7.06799 -8.95126,13.14628 v 18.67368 c 0,7.72157 6.02419,14.00527 13.42688,14.00527 7.40269,0 13.42688,-6.2837 13.42688,-14.00527 V 154.4906 c 0,-6.07829 -3.75504,-11.21355 -8.95125,-13.14628 v -0.85899 c 0,-5.14927 4.01464,-9.33684 8.95125,-9.33684 h 31.3294 c 9.87323,0 17.90251,-8.37515 17.90251,-18.67369 v -4.66843 c 0,-10.298521 -8.02928,-18.673671 -17.90251,-18.673671 z m -8.95125,9.33684 c 0,2.576971 -2.00956,4.668421 -4.47564,4.668421 H 98.676021 c -2.46607,0 -4.47562,-2.09145 -4.47562,-4.668421 v -9.33684 c 0,-2.576975 2.00955,-4.668425 4.47562,-4.668425 H 161.3348 c 2.46608,0 4.47564,2.09145 4.47564,4.668425 z m -31.3294,74.694741 c 0,2.57698 -2.00956,4.66843 -4.47563,4.66843 -2.46607,0 -4.47562,-2.09145 -4.47562,-4.66843 V 154.4906 c 0,-2.57698 2.00955,-4.66843 4.47562,-4.66843 2.46607,0 4.47563,2.09145 4.47563,4.66843 z"
       id="path216"
       style="stroke-width:4.571" /><text
       xml:space="preserve"
       transform="scale(0.26458333)"
       id="text276"
       style="font-size:85.3333px;white-space:pre;shape-inside:url(#rect278);display:inline;fill:#000000" /><text
       xml:space="preserve"
       transform="matrix(0.26458333,0,0,0.26458333,-36.438169,-93.119766)"
       id="text282"
       style="font-style:normal;font-variant:normal;font-weight:normal;font-stretch:normal;font-size:120px;font-family:'Trajan Pro';-inkscape-font-specification:'Trajan Pro';text-align:center;white-space:pre;shape-inside:url(#rect284);display:inline;fill:#f9f9f9"><tspan
         x="220.00981"
         y="893.05859"
         id="tspan443"><tspan
           style="font-weight:bold;-inkscape-font-specification:'Trajan Pro Bold'"
           id="tspan441">Tool
</tspan></tspan><tspan
         x="228.58956"
         y="1043.0586"
         id="tspan447"><tspan
           style="font-weight:bold;-inkscape-font-specification:'Trajan Pro Bold'"
           id="tspan445">Swap</tspan></tspan></text></g></svg>
